<?xml version="1.0" encoding="UTF-8" standalone="no"?>
<!DOCTYPE svg PUBLIC "-//W3C//DTD SVG 1.1//EN" "http://www.w3.org/Graphics/SVG/1.1/DTD/svg11.dtd">
<svg width="100%" height="100%" viewBox="0 0 272 195" version="1.1" xmlns="http://www.w3.org/2000/svg" xmlns:xlink="http://www.w3.org/1999/xlink" xml:space="preserve" xmlns:serif="http://www.serif.com/" style="fill-rule:evenodd;clip-rule:evenodd;stroke-linejoin:round;stroke-miterlimit:2;">
    <g transform="matrix(1,0,0,1,-504.489,-468.813)">
        <g transform="matrix(1,0,0,1,6,157.932)">
            <g>
                <g transform="matrix(1.48099,0,0,1.48099,634,407.886)">
                    <g transform="matrix(1,0,0,1,-91.5,-65.5)">
                        <clipPath id="_clip1">
                            <rect x="0" y="0" width="183" height="131"/>
                        </clipPath>
                        <g clip-path="url(#_clip1)">
                            <g>
                                <g>
                                    <path d="M143.1,114.1L143.7,107.3L24.2,111.6L29,114.3L6.4,111.2L6.7,125.7C6.7,125.7 17.1,132.1 32.2,130.7C32.2,130.7 34,130.9 34.2,128.9C34.2,128.9 33.9,126.4 37,126.4L55.8,127.5L56.1,127.6C56.1,127.6 126.1,128.3 140.4,125.3L143.5,125.1C146.7,125.1 146.3,127.6 146.3,127.6C146.5,129.7 148.3,129.4 148.3,129.4C163.5,130.9 173.8,124.4 173.8,124.4L174.1,109.9L143.1,114.1Z" style="fill:rgb(57,40,19);fill-rule:nonzero;"/>
                                    <path d="M177.3,74.4C177.3,69.7 174.6,65.8 171.3,65.5L171.3,83.2C174.7,83 177.3,79.1 177.3,74.4Z" style="fill:rgb(57,40,19);fill-rule:nonzero;"/>
                                    <path d="M170.4,50.7C171.1,50.7 182,46.1 182.8,40.4L174.6,42.5L167.8,45L170.5,49.8" style="fill:rgb(57,40,19);fill-rule:nonzero;"/>
                                    <path d="M169,40.5L170,47.3C170,47.3 180.1,44.2 182.8,40.5C182.8,40.5 183.7,37.7 181.9,35.6L170,39.4L169,40.5Z" style="fill:rgb(235,228,218);fill-rule:nonzero;"/>
                                    <path d="M164.3,31.9C164.3,31.9 176.2,30.4 179.4,32.8C179.4,32.8 184.5,36 180.9,38C180.9,38 170.6,42.3 167.4,41.2L164.1,33L164.3,31.9Z" style="fill:rgb(57,40,19);fill-rule:nonzero;"/>
                                    <path d="M131.7,4.5L45,4.5C30,6.3 17.9,24 17.9,24L18.2,25.5C51,20.2 62.6,23.2 88.3,18.2C96.2,20.3 143.6,22.3 158.4,25.5L158.7,24C158.8,24 146.7,6.3 131.7,4.5Z" style="fill:rgb(202,196,187);fill-rule:nonzero;"/>
                                    <path d="M171.4,47.1C171.4,47.1 171.4,31.7 158.6,22.8C158.6,22.8 148.6,14.8 134.1,14.8C133.3,14.8 107.2,14.6 93.4,14.5L93.4,14.4L85.2,14.4L85.2,14.5C71.5,14.6 45.3,14.8 44.5,14.8C30,14.8 20,22.8 20,22.8C7.4,31.7 7.4,47.1 7.4,47.1L5.3,111.4C9.2,120.4 70.9,120.1 89.5,119.9C107.9,120.2 169.7,120.4 173.7,111.4L171.4,47.1Z" style="fill:rgb(235,228,218);fill-rule:nonzero;"/>
                                    <path d="M138.6,89.8L137.5,16L128.6,4.4L88.4,4.4L88.4,4.5L48.5,4.5L39.7,16.1L38.6,89.9C38.6,89.9 37.7,98.7 46.1,99.7C48.5,100 93.9,99.7 93.9,99.7C107.5,99.8 129.5,99.9 131.2,99.6C139.6,98.7 138.6,89.8 138.6,89.8Z" style="fill:rgb(175,169,161);fill-opacity:0.57;fill-rule:nonzero;"/>
                                    <path d="M46.3,11.1L44.2,13.6L133.1,13.8L131,11.1L46.3,11.1Z" style="fill:rgb(57,40,19);fill-rule:nonzero;"/>
                                    <path d="M49.2,6.9L47.2,9.4L130.2,9.8L128.1,7.1L49.2,6.9Z" style="fill:rgb(57,40,19);fill-rule:nonzero;"/>
                                </g>
                            </g>
                        </g>
                    </g>
                </g>
                <g transform="matrix(0.384697,0,0,0.384697,632.048,430.331)">
                    <path d="M0,-168.68C-3.482,-168.68 -6.909,-168.444 -10.28,-168.034L-15.595,-89.69L37.295,-117.958L15.261,-62.224L57.522,-67.13L36.36,-28.749L2.025,-28.749L16.548,-77.503L-16.66,-74.008L-21.492,-2.772C-14.63,-0.97 -7.429,0 0,0C46.58,0 84.341,-37.76 84.341,-84.34C84.34,-130.92 46.579,-168.68 0,-168.68" style="fill:rgb(119,38,115);fill-rule:nonzero;"/>
                </g>
            </g>
            <g transform="matrix(0.384697,0,0,0.384697,614.509,428.618)">
                <path d="M0,-150.824C-23.301,-135.816 -38.746,-109.664 -38.746,-79.887C-38.746,-42.767 -14.756,-11.272 18.557,0L0,-150.824Z" style="fill:rgb(33,126,193);fill-rule:nonzero;"/>
            </g>
        </g>
    </g>
</svg>
